<mxfile host="app.diagrams.net" agent="Mozilla/5.0 (Windows NT 10.0; Win64; x64) AppleWebKit/537.36 (KHTML, like Gecko) Chrome/131.0.0.0 Safari/537.36" version="25.0.1">
  <diagram name="Seite-1" id="Jd_ybocfECCN6e2M2G_0">
    <mxGraphModel dx="1430" dy="763" grid="1" gridSize="10" guides="1" tooltips="1" connect="1" arrows="1" fold="1" page="1" pageScale="1" pageWidth="827" pageHeight="1169" math="0" shadow="0">
      <root>
        <mxCell id="0" />
        <mxCell id="1" parent="0" />
        <mxCell id="5SP-J_h6_2eg4ctnNna5-33" style="edgeStyle=orthogonalEdgeStyle;rounded=0;orthogonalLoop=1;jettySize=auto;html=1;entryX=0.5;entryY=0;entryDx=0;entryDy=0;" edge="1" parent="1" source="5SP-J_h6_2eg4ctnNna5-1" target="5SP-J_h6_2eg4ctnNna5-4">
          <mxGeometry relative="1" as="geometry" />
        </mxCell>
        <mxCell id="5SP-J_h6_2eg4ctnNna5-34" style="edgeStyle=orthogonalEdgeStyle;rounded=0;orthogonalLoop=1;jettySize=auto;html=1;entryX=0.5;entryY=0;entryDx=0;entryDy=0;" edge="1" parent="1" source="5SP-J_h6_2eg4ctnNna5-1" target="5SP-J_h6_2eg4ctnNna5-22">
          <mxGeometry relative="1" as="geometry" />
        </mxCell>
        <mxCell id="5SP-J_h6_2eg4ctnNna5-35" style="edgeStyle=orthogonalEdgeStyle;rounded=0;orthogonalLoop=1;jettySize=auto;html=1;entryX=0;entryY=0.5;entryDx=0;entryDy=0;" edge="1" parent="1" source="5SP-J_h6_2eg4ctnNna5-1" target="5SP-J_h6_2eg4ctnNna5-27">
          <mxGeometry relative="1" as="geometry">
            <Array as="points">
              <mxPoint x="740" y="80" />
              <mxPoint x="740" y="200" />
              <mxPoint x="930" y="200" />
              <mxPoint x="930" y="395" />
            </Array>
          </mxGeometry>
        </mxCell>
        <mxCell id="5SP-J_h6_2eg4ctnNna5-36" style="edgeStyle=orthogonalEdgeStyle;rounded=0;orthogonalLoop=1;jettySize=auto;html=1;" edge="1" parent="1" source="5SP-J_h6_2eg4ctnNna5-1" target="5SP-J_h6_2eg4ctnNna5-28">
          <mxGeometry relative="1" as="geometry">
            <Array as="points">
              <mxPoint x="740" y="80" />
              <mxPoint x="740" y="200" />
              <mxPoint x="930" y="200" />
              <mxPoint x="930" y="480" />
              <mxPoint x="1130" y="480" />
            </Array>
          </mxGeometry>
        </mxCell>
        <mxCell id="5SP-J_h6_2eg4ctnNna5-1" value="player" style="shape=umlActor;verticalLabelPosition=bottom;verticalAlign=top;html=1;outlineConnect=0;" vertex="1" parent="1">
          <mxGeometry x="384" y="50" width="30" height="60" as="geometry" />
        </mxCell>
        <mxCell id="5SP-J_h6_2eg4ctnNna5-9" style="edgeStyle=orthogonalEdgeStyle;rounded=0;orthogonalLoop=1;jettySize=auto;html=1;entryX=0;entryY=0.5;entryDx=0;entryDy=0;dashed=1;" edge="1" parent="1" source="5SP-J_h6_2eg4ctnNna5-3" target="5SP-J_h6_2eg4ctnNna5-6">
          <mxGeometry relative="1" as="geometry" />
        </mxCell>
        <mxCell id="5SP-J_h6_2eg4ctnNna5-20" style="edgeStyle=orthogonalEdgeStyle;rounded=0;orthogonalLoop=1;jettySize=auto;html=1;entryX=0.5;entryY=0;entryDx=0;entryDy=0;" edge="1" parent="1" source="5SP-J_h6_2eg4ctnNna5-3" target="5SP-J_h6_2eg4ctnNna5-19">
          <mxGeometry relative="1" as="geometry" />
        </mxCell>
        <mxCell id="5SP-J_h6_2eg4ctnNna5-3" value="spawn" style="ellipse;whiteSpace=wrap;html=1;" vertex="1" parent="1">
          <mxGeometry x="329" y="330" width="140" height="70" as="geometry" />
        </mxCell>
        <mxCell id="5SP-J_h6_2eg4ctnNna5-5" style="edgeStyle=orthogonalEdgeStyle;rounded=0;orthogonalLoop=1;jettySize=auto;html=1;entryX=0.5;entryY=0;entryDx=0;entryDy=0;" edge="1" parent="1" source="5SP-J_h6_2eg4ctnNna5-4" target="5SP-J_h6_2eg4ctnNna5-3">
          <mxGeometry relative="1" as="geometry" />
        </mxCell>
        <mxCell id="5SP-J_h6_2eg4ctnNna5-12" style="edgeStyle=orthogonalEdgeStyle;rounded=0;orthogonalLoop=1;jettySize=auto;html=1;entryX=0;entryY=0.5;entryDx=0;entryDy=0;dashed=1;" edge="1" parent="1" source="5SP-J_h6_2eg4ctnNna5-4" target="5SP-J_h6_2eg4ctnNna5-11">
          <mxGeometry relative="1" as="geometry" />
        </mxCell>
        <mxCell id="5SP-J_h6_2eg4ctnNna5-4" value="start round" style="ellipse;whiteSpace=wrap;html=1;" vertex="1" parent="1">
          <mxGeometry x="329" y="230" width="140" height="70" as="geometry" />
        </mxCell>
        <mxCell id="5SP-J_h6_2eg4ctnNna5-8" style="edgeStyle=orthogonalEdgeStyle;rounded=0;orthogonalLoop=1;jettySize=auto;html=1;entryX=0;entryY=0.5;entryDx=0;entryDy=0;dashed=1;" edge="1" parent="1" source="5SP-J_h6_2eg4ctnNna5-6" target="5SP-J_h6_2eg4ctnNna5-7">
          <mxGeometry relative="1" as="geometry" />
        </mxCell>
        <mxCell id="5SP-J_h6_2eg4ctnNna5-6" value="reset item storage" style="ellipse;whiteSpace=wrap;html=1;" vertex="1" parent="1">
          <mxGeometry x="530" y="330" width="140" height="70" as="geometry" />
        </mxCell>
        <mxCell id="5SP-J_h6_2eg4ctnNna5-7" value="reset inventory" style="ellipse;whiteSpace=wrap;html=1;" vertex="1" parent="1">
          <mxGeometry x="730" y="330" width="140" height="70" as="geometry" />
        </mxCell>
        <mxCell id="5SP-J_h6_2eg4ctnNna5-10" value="reset player model" style="ellipse;whiteSpace=wrap;html=1;" vertex="1" parent="1">
          <mxGeometry x="530" y="440" width="140" height="70" as="geometry" />
        </mxCell>
        <mxCell id="5SP-J_h6_2eg4ctnNna5-11" value="decide skin" style="ellipse;whiteSpace=wrap;html=1;" vertex="1" parent="1">
          <mxGeometry x="530" y="230" width="140" height="70" as="geometry" />
        </mxCell>
        <mxCell id="5SP-J_h6_2eg4ctnNna5-18" style="edgeStyle=orthogonalEdgeStyle;rounded=0;orthogonalLoop=1;jettySize=auto;html=1;entryX=0;entryY=0.571;entryDx=0;entryDy=0;entryPerimeter=0;dashed=1;" edge="1" parent="1" source="5SP-J_h6_2eg4ctnNna5-3" target="5SP-J_h6_2eg4ctnNna5-10">
          <mxGeometry relative="1" as="geometry" />
        </mxCell>
        <mxCell id="5SP-J_h6_2eg4ctnNna5-19" value="decide role" style="ellipse;whiteSpace=wrap;html=1;" vertex="1" parent="1">
          <mxGeometry x="329" y="440" width="140" height="70" as="geometry" />
        </mxCell>
        <mxCell id="5SP-J_h6_2eg4ctnNna5-29" style="edgeStyle=orthogonalEdgeStyle;rounded=0;orthogonalLoop=1;jettySize=auto;html=1;entryX=1;entryY=0.5;entryDx=0;entryDy=0;dashed=1;" edge="1" parent="1" source="5SP-J_h6_2eg4ctnNna5-22" target="5SP-J_h6_2eg4ctnNna5-24">
          <mxGeometry relative="1" as="geometry">
            <Array as="points">
              <mxPoint x="960" y="285" />
              <mxPoint x="960" y="455" />
            </Array>
          </mxGeometry>
        </mxCell>
        <mxCell id="5SP-J_h6_2eg4ctnNna5-22" value="pick up item" style="ellipse;whiteSpace=wrap;html=1;" vertex="1" parent="1">
          <mxGeometry x="1060" y="250" width="140" height="70" as="geometry" />
        </mxCell>
        <mxCell id="5SP-J_h6_2eg4ctnNna5-37" style="edgeStyle=orthogonalEdgeStyle;rounded=0;orthogonalLoop=1;jettySize=auto;html=1;entryX=1;entryY=0.5;entryDx=0;entryDy=0;dashed=1;dashPattern=1 4;" edge="1" parent="1" source="5SP-J_h6_2eg4ctnNna5-27" target="5SP-J_h6_2eg4ctnNna5-24">
          <mxGeometry relative="1" as="geometry">
            <mxPoint x="880" y="460" as="targetPoint" />
            <Array as="points">
              <mxPoint x="1130" y="350" />
              <mxPoint x="960" y="350" />
              <mxPoint x="960" y="455" />
            </Array>
          </mxGeometry>
        </mxCell>
        <mxCell id="5SP-J_h6_2eg4ctnNna5-27" value="drop item" style="ellipse;whiteSpace=wrap;html=1;" vertex="1" parent="1">
          <mxGeometry x="1060" y="360" width="140" height="70" as="geometry" />
        </mxCell>
        <mxCell id="5SP-J_h6_2eg4ctnNna5-31" style="edgeStyle=orthogonalEdgeStyle;rounded=0;orthogonalLoop=1;jettySize=auto;html=1;entryX=1;entryY=0.5;entryDx=0;entryDy=0;dashed=1;" edge="1" parent="1" source="5SP-J_h6_2eg4ctnNna5-28" target="5SP-J_h6_2eg4ctnNna5-26">
          <mxGeometry relative="1" as="geometry" />
        </mxCell>
        <mxCell id="5SP-J_h6_2eg4ctnNna5-28" value="equip item" style="ellipse;whiteSpace=wrap;html=1;" vertex="1" parent="1">
          <mxGeometry x="1060" y="520" width="140" height="70" as="geometry" />
        </mxCell>
        <mxCell id="5SP-J_h6_2eg4ctnNna5-24" value="change inventory" style="ellipse;whiteSpace=wrap;html=1;" vertex="1" parent="1">
          <mxGeometry x="730" y="440" width="140" height="70" as="geometry" />
        </mxCell>
        <mxCell id="5SP-J_h6_2eg4ctnNna5-26" value="change model" style="ellipse;whiteSpace=wrap;html=1;" vertex="1" parent="1">
          <mxGeometry x="730" y="550" width="140" height="70" as="geometry" />
        </mxCell>
        <mxCell id="5SP-J_h6_2eg4ctnNna5-38" value="drop" style="shape=umlFrame;whiteSpace=wrap;html=1;pointerEvents=0;" vertex="1" parent="1">
          <mxGeometry x="950" y="200" width="570" height="410" as="geometry" />
        </mxCell>
      </root>
    </mxGraphModel>
  </diagram>
</mxfile>
